<?xml version="1.0" encoding="iso-8859-1"?>
<!-- Generator: Adobe Illustrator 18.0.0, SVG Export Plug-In . SVG Version: 6.00 Build 0)  -->
<!DOCTYPE svg PUBLIC "-//W3C//DTD SVG 1.1//EN" "http://www.w3.org/Graphics/SVG/1.1/DTD/svg11.dtd">
<svg version="1.1" id="Capa_1" xmlns="http://www.w3.org/2000/svg" xmlns:xlink="http://www.w3.org/1999/xlink" x="0px" y="0px"
	 viewBox="0 0 465.789 465.789" style="enable-background:new 0 0 465.789 465.789;" xml:space="preserve">
<path d="M357.533,450.789H249.955V230.942l99.279-11.933c1.976-0.237,3.775-1.25,5.004-2.814c1.229-1.564,1.785-3.552,1.548-5.527
	l-9.171-76.301c-0.495-4.113-4.241-7.049-8.341-6.551l-88.319,10.615v-21.049l90.02,8.144c0.226,0.02,0.451,0.03,0.676,0.03
	c1.748,0,3.45-0.611,4.804-1.741c1.527-1.274,2.486-3.103,2.666-5.083l1.597-17.652c0.352-3.893-2.344-7.403-6.195-8.067
	l-27.229-4.695l31.728-13.113c2.579-1.066,4.353-3.476,4.604-6.255l2.42-26.756c0.373-4.125-2.669-7.772-6.794-8.146l-93.437-8.453
	V7.5c0-4.142-3.357-7.5-7.5-7.5H219c-4.143,0-7.5,3.358-7.5,7.5v14.177l-94.878-8.583c-1.98-0.176-3.952,0.436-5.479,1.71
	c-1.527,1.274-2.486,3.103-2.666,5.083l-1.403,15.516c-0.31,3.423,1.747,6.619,4.991,7.754l19.533,6.84l-23.928,13.908
	c-2.103,1.222-3.482,3.387-3.701,5.809l-2.416,26.711c-0.373,4.125,2.669,7.772,6.794,8.146l103.153,9.332v29.15L107.362,155.57
	c-4.113,0.494-7.046,4.229-6.552,8.341l3.394,28.234c0.479,3.991,3.995,6.894,8.028,6.583l12.534-0.975l-14.039,7.02
	c-2.832,1.416-4.47,4.459-4.092,7.603l3.346,27.837c0.237,1.975,1.249,3.774,2.813,5.003c1.328,1.042,2.961,1.602,4.633,1.602
	c0.298,0,0.597-0.018,0.895-0.054l93.178-11.199v215.224H108.78c-4.143,0-7.5,3.358-7.5,7.5s3.357,7.5,7.5,7.5h248.753
	c4.143,0,7.5-3.358,7.5-7.5S361.675,450.789,357.533,450.789z M226.5,15h13.313v9.238L226.5,23.034V15z M118.558,74.926
	l34.653-20.142c2.531-1.471,3.975-4.28,3.697-7.195c-0.276-2.914-2.225-5.401-4.987-6.368l-29.383-10.289l0.201-2.225
	l216.688,19.604l-1.335,14.765l-51.516,21.292c-3.087,1.276-4.958,4.439-4.589,7.759c0.368,3.32,2.888,5.996,6.18,6.563
	l45.985,7.929l-0.298,3.292L117.168,90.307L118.558,74.926z M226.5,115.26l8.455,0.765v24.209l-8.455,1.016V115.26z
	 M122.158,215.828l43.64-21.82c3.208-1.604,4.832-5.256,3.872-8.713c-0.959-3.458-4.232-5.746-7.809-5.473l-43.623,3.393
	l-1.64-13.648l216.019-25.964l7.381,61.409l-216.019,25.964L122.158,215.828z M226.5,233.761l8.455-1.016v218.043H226.5V233.761z"/>
<g>
</g>
<g>
</g>
<g>
</g>
<g>
</g>
<g>
</g>
<g>
</g>
<g>
</g>
<g>
</g>
<g>
</g>
<g>
</g>
<g>
</g>
<g>
</g>
<g>
</g>
<g>
</g>
<g>
</g>
</svg>
