<?xml version="1.0" encoding="iso-8859-1"?>
<!-- Generator: Adobe Illustrator 16.0.0, SVG Export Plug-In . SVG Version: 6.00 Build 0)  -->
<!DOCTYPE svg PUBLIC "-//W3C//DTD SVG 1.1//EN" "http://www.w3.org/Graphics/SVG/1.1/DTD/svg11.dtd">
<svg version="1.1" id="Capa_1" xmlns="http://www.w3.org/2000/svg" xmlns:xlink="http://www.w3.org/1999/xlink" x="0px" y="0px"
	 width="44.793px" height="44.793px" viewBox="0 0 44.793 44.793" style="enable-background:new 0 0 44.793 44.793;"
	 xml:space="preserve">
<g>
	<g>
		<g>
			<path d="M27.325,14.756c-0.911-0.912-2.479-0.267-2.479,1.023v1.523h-5.831c-3.409,0-6.191,2.793-6.191,6.202v4.285
				c0,1.477,1.201,2.673,2.677,2.673c1.477,0,2.677-1.196,2.677-2.673v-4.285c0-0.461,0.376-0.85,0.838-0.85h5.832v1.557
				c0,1.289,1.567,1.936,2.479,1.023l4.221-4.216c0.564-0.564,0.562-1.481-0.002-2.047L27.325,14.756z"/>
		</g>
		<g>
			<path d="M22.396,44.792c-1.938,0-3.763-0.755-5.135-2.126L2.127,27.53C0.755,26.161,0,24.336,0,22.397
				c0-1.94,0.756-3.765,2.128-5.135L17.261,2.127C18.633,0.755,20.458,0,22.396,0s3.763,0.755,5.135,2.126l15.134,15.135
				c1.372,1.371,2.128,3.194,2.128,5.133c0,1.94-0.756,3.765-2.128,5.135L27.531,42.666C26.159,44.038,24.334,44.792,22.396,44.792z
				 M22.396,4.394c-0.767,0-1.487,0.298-2.029,0.841L5.233,20.368c-0.542,0.542-0.841,1.263-0.841,2.029
				c0,0.766,0.299,1.486,0.841,2.027l15.134,15.135c1.083,1.084,2.976,1.084,4.059,0l15.135-15.134
				c0.541-0.542,0.84-1.263,0.84-2.028c0-0.767-0.299-1.487-0.84-2.028L24.425,5.233C23.883,4.691,23.163,4.394,22.396,4.394z"/>
		</g>
	</g>
</g>
<g>
</g>
<g>
</g>
<g>
</g>
<g>
</g>
<g>
</g>
<g>
</g>
<g>
</g>
<g>
</g>
<g>
</g>
<g>
</g>
<g>
</g>
<g>
</g>
<g>
</g>
<g>
</g>
<g>
</g>
</svg>
